{"title":"KC.YouShoot.With.Sean.Waltman.[Skinnator]","uid":11514387,"size":838801454,"categoryP":"video","categoryS":"hd___tv_shows","magnet":"?xt=urn:btih:39bdb30f229ad841c0d21cd0f32d4877769e4113&amp;dn=+KC.YouShoot.With.Sean.Waltman.%5BSkinnator%5D&amp;tr=udp%3A%2F%2Ftracker.openbittorrent.com%3A80&amp;tr=udp%3A%2F%2Fopen.demonii.com%3A1337&amp;tr=udp%3A%2F%2Ftracker.coppersurfer.tk%3A6969&amp;tr=udp%3A%2F%2Fexodus.desync.com%3A6969","seeders":0,"leechers":1,"uploader":"yuku","files":2,"time":1416435094,"description":"Yeah, we'd heard Waltman was a big fan of the YouShoot series.  We knew he wanted on!  So you knew he would bring it, and man, does he ever!\n\nWe can't stress enough, that these are the recollections and opinions of Waltman and not necessarily KC!  We don't know whether Jenna or Chyna had more...ehh...skills.\n\nThere's no stone unturned!  It's part comedy, part therapy.. ALL shoot!  Get ready for one of the most memorable editions of wrestling's YouShoot series!\n\nNFO\t\n\nGeneral\nFormat                                   : AVI\nFormat/Info                              : Audio Video Interleave\nFile size                                : 800 MiB\nDuration                                 : 2h 28mn\nOverall bit rate                         : 756 Kbps\n\nVideo\nID                                       : 0\nFormat                                   : MPEG-4 Visual\nFormat settings, BVOP                    : No\nFormat settings, QPel                    : No\nFormat settings, GMC                     : No warppoints\nFormat settings, Matrix                  : Default (H.263)\nCodec ID                                 : DX50\nCodec ID/Hint                            : DivX 5\nDuration                                 : 2h 28mn\nBit rate                                 : 651 Kbps\nWidth                                    : 480 pixels\nHeight                                   : 272 pixels\nDisplay aspect ratio                     : 16:9\nFrame rate                               : 29.970 fps\nColor space                              : YUV\nChroma subsampling                       : 4:2:0\nBit depth                                : 8 bits\nScan type                                : Progressive\nCompression mode                         : Lossy\nBits/(Pixel*Frame)                       : 0.166\nStream size                              : 689 MiB (86%)\n\nAudio\nID                                       : 1\nFormat                                   : MPEG Audio\nFormat version                           : Version 1\nFormat profile                           : Layer 3\nMode                                     : Joint stereo\nMode extension                           : MS Stereo\nCodec ID                                 : 55\nCodec ID/Hint                            : MP3\nDuration                                 : 2h 28mn\nBit rate mode                            : Constant\nBit rate                                 : 96.0 Kbps\nChannel(s)                               : 2 channels\nSampling rate                            : 32.0 KHz\nCompression mode                         : Lossy\nStream size                              : 102 MiB (13%)\nAlignment                                : Aligned on interleaves\nInterleave, duration                     : 67 ms (2.00 video frames)\nInterleave, preload duration             : 504 ms\nEncoding settings                        : -m j -V 4 -q 2 -lowpass 15.1 -b 96","torrent":{"xt":"urn:btih:39bdb30f229ad841c0d21cd0f32d4877769e4113","amp;dn":"+KC.YouShoot.With.Sean.Waltman.%5BSkinnator%5D","amp;tr":["udp%3A%2F%2Ftracker.openbittorrent.com%3A80","udp%3A%2F%2Fopen.demonii.com%3A1337","udp%3A%2F%2Ftracker.coppersurfer.tk%3A6969","udp%3A%2F%2Fexodus.desync.com%3A6969"],"infoHash":"39bdb30f229ad841c0d21cd0f32d4877769e4113","infoHashBuffer":{"type":"Buffer","data":[57,189,179,15,34,154,216,65,192,210,28,208,243,45,72,119,118,158,65,19]},"announce":[],"urlList":[]}}